<?xml version="1.0" standalone="no"?>
<!DOCTYPE svg PUBLIC "-//W3C//DTD SVG 20010904//EN"
 "http://www.w3.org/TR/2001/REC-SVG-20010904/DTD/svg10.dtd">
<svg version="1.0" xmlns="http://www.w3.org/2000/svg"
 width="640.000000pt" height="640.000000pt" viewBox="0 0 640.000000 640.000000"
 preserveAspectRatio="xMidYMid meet">
<metadata>
Created by potrace 1.11, written by Peter Selinger 2001-2013
</metadata>
<g transform="translate(0.000000,640.000000) scale(0.100000,-0.100000)"
fill="#000000" stroke="none">
<path d="M2960 6394 c-674 -60 -1249 -289 -1770 -702 -121 -96 -383 -358 -481
-482 -370 -463 -594 -982 -680 -1568 -26 -181 -36 -513 -20 -697 57 -655 294
-1250 701 -1756 106 -132 345 -371 475 -476 472 -378 998 -604 1615 -690 178
-25 623 -24 805 1 1082 149 1990 797 2464 1761 162 328 254 634 308 1015 25
176 25 624 0 800 -86 616 -306 1132 -685 1610 -96 121 -358 383 -482 481 -392
313 -836 527 -1310 633 -231 51 -378 67 -645 71 -137 1 -270 1 -295 -1z m568
-109 c593 -62 1163 -299 1632 -678 107 -87 319 -296 412 -407 401 -476 648
-1058 714 -1680 22 -213 15 -557 -16 -765 -86 -581 -330 -1120 -711 -1570 -74
-87 -286 -302 -292 -294 -1 2 -37 42 -78 89 -41 47 -81 93 -88 103 -12 16 0
31 120 155 426 435 684 964 776 1587 27 185 24 591 -6 784 -97 626 -371 1164
-818 1602 -433 426 -953 686 -1564 780 -123 20 -184 23 -409 23 -146 0 -293
-5 -327 -11 -35 -5 -63 -7 -63 -4 0 3 -9 64 -20 135 -11 71 -18 132 -14 135 3
3 51 11 107 17 154 17 476 16 645 -1z m-804 -37 c10 -43 36 -225 36 -247 0
-15 -6 -21 -22 -21 -22 0 -194 -34 -229 -45 -13 -4 -22 18 -48 117 -18 68 -34
130 -37 140 -5 16 23 24 226 67 67 13 69 13 74 -11z m-313 -190 l36 -133 -26
-12 c-51 -24 -54 -20 -98 120 l-41 132 36 11 c21 7 42 12 47 13 6 1 27 -59 46
-131z m-131 -39 c23 -72 38 -135 33 -139 -4 -4 -44 -19 -88 -35 -251 -87 -559
-261 -787 -444 l-87 -69 -93 105 -92 106 44 40 c171 152 472 342 712 448 109
49 288 118 304 119 7 0 31 -59 54 -131z m1082 -99 c680 -43 1285 -316 1763
-795 278 -278 476 -580 615 -936 311 -797 225 -1711 -229 -2434 -212 -337
-532 -658 -863 -864 -886 -553 -2014 -554 -2893 -2 -337 211 -658 532 -864
863 -733 1176 -475 2706 604 3575 427 344 975 557 1520 592 177 12 177 12 347
1z m-2152 -497 c41 -47 81 -95 89 -105 12 -18 3 -30 -111 -146 -148 -151 -221
-240 -332 -405 -233 -345 -381 -728 -447 -1158 -33 -209 -33 -609 0 -818 98
-635 375 -1173 833 -1617 508 -493 1153 -767 1863 -791 112 -4 236 -1 328 7
82 6 150 10 153 8 2 -3 13 -63 24 -133 14 -97 17 -131 8 -136 -24 -15 -192
-24 -443 -24 -218 1 -285 4 -415 24 -1428 212 -2510 1349 -2649 2785 -16 157
-13 443 4 614 61 587 290 1142 663 1612 72 90 339 371 351 369 3 0 40 -39 81
-86z m3935 -4467 l88 -100 -39 -34 c-142 -123 -385 -284 -584 -386 -106 -54
-355 -160 -425 -180 -19 -5 -24 6 -57 112 -20 64 -40 124 -43 133 -4 12 17 24
97 53 139 51 344 150 480 232 110 66 330 226 358 259 7 8 18 15 25 13 7 -2 51
-48 100 -102z m-1072 -579 c21 -67 38 -127 37 -133 0 -10 -78 -39 -85 -32 -2
2 -19 62 -38 135 l-35 132 26 10 c53 19 55 17 95 -112z m-135 -39 c18 -68 32
-128 32 -134 0 -12 -67 -29 -217 -58 l-73 -14 -5 32 c-17 98 -35 239 -31 243
5 5 213 50 241 52 18 1 25 -14 53 -121z"/>
<path d="M3240 5110 c-652 -80 -1194 -462 -1490 -1049 -183 -366 -235 -782
-149 -1205 46 -229 174 -533 294 -701 73 -102 203 -252 262 -305 75 -65 83
-61 152 85 250 527 584 868 1041 1063 69 30 130 58 135 64 17 18 -172 0 -280
-26 -240 -59 -432 -151 -618 -293 -87 -67 -240 -216 -300 -293 -28 -36 -54
-69 -58 -74 -10 -11 -83 103 -143 223 -64 127 -112 274 -137 422 -28 163 -23
439 11 594 37 172 123 399 157 412 7 3 114 -18 238 -47 125 -29 228 -50 230
-49 2 2 -57 87 -131 189 -73 102 -133 192 -134 201 0 25 205 217 308 287 403
276 897 348 1362 200 144 -46 350 -146 350 -171 0 -4 -4 -6 -8 -3 -21 13 -203
-16 -294 -48 -331 -113 -528 -381 -528 -717 0 -225 62 -403 207 -597 32 -42
139 -158 238 -257 209 -208 267 -282 335 -420 69 -140 85 -205 85 -350 0 -97
-5 -134 -24 -195 -64 -209 -190 -360 -376 -450 -129 -62 -187 -74 -370 -75
-138 0 -171 3 -240 23 -170 49 -330 141 -464 268 l-79 74 -40 -63 c-65 -103
-132 -232 -132 -255 0 -14 17 -31 59 -57 148 -89 347 -166 534 -207 139 -30
429 -32 556 -4 246 53 426 144 585 296 98 94 155 167 212 274 185 347 158 733
-74 1061 -51 73 -126 152 -319 337 -221 213 -314 384 -329 603 -19 261 140
499 381 571 94 29 272 24 398 -10 117 -31 141 -32 167 -6 36 36 26 66 -47 142
-253 262 -618 451 -1018 525 -96 17 -410 25 -515 13z"/>
</g>
</svg>
