<?xml version="1.0" encoding="UTF-8" standalone="no"?>
<!-- Created with Inkscape (http://www.inkscape.org/) -->

<svg
   xmlns:dc="http://purl.org/dc/elements/1.1/"
   xmlns:cc="http://creativecommons.org/ns#"
   xmlns:rdf="http://www.w3.org/1999/02/22-rdf-syntax-ns#"
   xmlns:svg="http://www.w3.org/2000/svg"
   xmlns="http://www.w3.org/2000/svg"
   xmlns:sodipodi="http://sodipodi.sourceforge.net/DTD/sodipodi-0.dtd"
   xmlns:inkscape="http://www.inkscape.org/namespaces/inkscape"
   width="135"
   height="135"
   viewBox="0 0 35.718749 35.718751"
   version="1.1"
   id="svg8"
   inkscape:version="0.92.3 (2405546, 2018-03-11)"
   sodipodi:docname="skkoin_icon.svg">
  <defs
     id="defs2">
    <linearGradient
       x1="0"
       y1="0"
       x2="1"
       y2="0"
       gradientUnits="userSpaceOnUse"
       gradientTransform="matrix(-8.0570374,4.5579987,4.5579987,8.0570374,40.659759,36.91803)"
       spreadMethod="pad"
       id="linearGradient5817">
      <stop
         style="stop-opacity:1;stop-color:#ffffff"
         offset="0"
         id="stop5819" />
      <stop
         style="stop-opacity:1;stop-color:#e8ec8f"
         offset="0.199997"
         id="stop5821" />
      <stop
         style="stop-opacity:1;stop-color:#abcd03"
         offset="0.759995"
         id="stop5823" />
      <stop
         style="stop-opacity:1;stop-color:#8fc41e"
         offset="1"
         id="stop5825" />
    </linearGradient>
    <linearGradient
       x1="0"
       y1="0"
       x2="1"
       y2="0"
       gradientUnits="userSpaceOnUse"
       gradientTransform="matrix(-7.5123444,5.0242004,5.0242004,7.5123444,39.975677,39.921158)"
       spreadMethod="pad"
       id="linearGradient5841">
      <stop
         style="stop-opacity:1;stop-color:#e5eb91"
         offset="0"
         id="stop5843" />
      <stop
         style="stop-opacity:1;stop-color:#c8db58"
         offset="0.199997"
         id="stop5845" />
      <stop
         style="stop-opacity:1;stop-color:#a2c80f"
         offset="0.399994"
         id="stop5847" />
      <stop
         style="stop-opacity:1;stop-color:#66b22f"
         offset="1"
         id="stop5849" />
    </linearGradient>
    <linearGradient
       x1="0"
       y1="0"
       x2="1"
       y2="0"
       gradientUnits="userSpaceOnUse"
       gradientTransform="matrix(-7.5105133,5.0229645,5.0229645,7.5105133,40.999466,41.453293)"
       spreadMethod="pad"
       id="linearGradient5865">
      <stop
         style="stop-opacity:1;stop-color:#e5eb91"
         offset="0"
         id="stop5867" />
      <stop
         style="stop-opacity:1;stop-color:#c8db58"
         offset="0.199997"
         id="stop5869" />
      <stop
         style="stop-opacity:1;stop-color:#a2c80f"
         offset="0.399994"
         id="stop5871" />
      <stop
         style="stop-opacity:1;stop-color:#66b22f"
         offset="1"
         id="stop5873" />
    </linearGradient>
    <linearGradient
       x1="0"
       y1="0"
       x2="1"
       y2="0"
       gradientUnits="userSpaceOnUse"
       gradientTransform="matrix(-7.5132141,5.0247803,5.0247803,7.5132141,37.290894,35.906143)"
       spreadMethod="pad"
       id="linearGradient5889">
      <stop
         style="stop-opacity:1;stop-color:#e5eb91"
         offset="0"
         id="stop5891" />
      <stop
         style="stop-opacity:1;stop-color:#c8db58"
         offset="0.199997"
         id="stop5893" />
      <stop
         style="stop-opacity:1;stop-color:#a2c80f"
         offset="0.399994"
         id="stop5895" />
      <stop
         style="stop-opacity:1;stop-color:#66b22f"
         offset="1"
         id="stop5897" />
    </linearGradient>
    <linearGradient
       x1="0"
       y1="0"
       x2="1"
       y2="0"
       gradientUnits="userSpaceOnUse"
       gradientTransform="matrix(-7.5122528,5.0241241,5.0241241,7.5122528,36.364624,34.523468)"
       spreadMethod="pad"
       id="linearGradient5913">
      <stop
         style="stop-opacity:1;stop-color:#e5eb91"
         offset="0"
         id="stop5915" />
      <stop
         style="stop-opacity:1;stop-color:#c8db58"
         offset="0.199997"
         id="stop5917" />
      <stop
         style="stop-opacity:1;stop-color:#a2c80f"
         offset="0.399994"
         id="stop5919" />
      <stop
         style="stop-opacity:1;stop-color:#66b22f"
         offset="1"
         id="stop5921" />
    </linearGradient>
    <clipPath
       clipPathUnits="userSpaceOnUse"
       id="clipPath5929">
      <path
         d="m 22.978,20.551 186.077,0 0,34.96 -186.077,0 0,-34.96 z"
         id="path5931"
         inkscape:connector-curvature="0" />
    </clipPath>
    <clipPath
       clipPathUnits="userSpaceOnUse"
       id="clipPath5949">
      <path
         d="m 27.575,20.551 175.765,0 0,28.085 -175.765,0 0,-28.085 z"
         id="path5951"
         inkscape:connector-curvature="0" />
    </clipPath>
    <clipPath
       clipPathUnits="userSpaceOnUse"
       id="clipPath5929-9">
      <path
         d="m 22.978,20.551 h 186.077 v 34.96 H 22.978 Z"
         id="path5931-2"
         inkscape:connector-curvature="0" />
    </clipPath>
    <clipPath
       clipPathUnits="userSpaceOnUse"
       id="clipPath5949-6">
      <path
         d="M 27.575,20.551 H 203.34 V 48.636 H 27.575 Z"
         id="path5951-7"
         inkscape:connector-curvature="0" />
    </clipPath>
  </defs>
  <sodipodi:namedview
     id="base"
     pagecolor="#ffffff"
     bordercolor="#666666"
     borderopacity="1.0"
     inkscape:pageopacity="0.0"
     inkscape:pageshadow="2"
     inkscape:zoom="3.959798"
     inkscape:cx="7.020007"
     inkscape:cy="61.443972"
     inkscape:document-units="mm"
     inkscape:current-layer="g13755"
     showgrid="false"
     units="px"
     inkscape:snap-bbox="true"
     inkscape:bbox-paths="true"
     inkscape:bbox-nodes="true"
     inkscape:snap-bbox-edge-midpoints="true"
     inkscape:snap-bbox-midpoints="true"
     inkscape:object-paths="true"
     inkscape:snap-intersection-paths="true"
     inkscape:snap-smooth-nodes="true"
     inkscape:snap-midpoints="true"
     inkscape:snap-object-midpoints="true"
     inkscape:snap-center="true"
     inkscape:snap-text-baseline="true"
     inkscape:snap-page="true"
     inkscape:window-width="1920"
     inkscape:window-height="1017"
     inkscape:window-x="-8"
     inkscape:window-y="-8"
     inkscape:window-maximized="1" />
  <metadata
     id="metadata5">
    <rdf:RDF>
      <cc:Work
         rdf:about="">
        <dc:format>image/svg+xml</dc:format>
        <dc:type
           rdf:resource="http://purl.org/dc/dcmitype/StillImage" />
        <dc:title></dc:title>
      </cc:Work>
    </rdf:RDF>
  </metadata>
  <g
     inkscape:label="Layer 1"
     inkscape:groupmode="layer"
     id="layer1"
     transform="translate(0,-261.28123)">
    <path
       style="fill:#e2c700;fill-opacity:1;stroke:#000000;stroke-width:0.5291667;stroke-linecap:round;stroke-linejoin:round;stroke-miterlimit:4;stroke-dasharray:none;stroke-opacity:1"
       d="M 35.454166,279.14059 A 17.594791,17.594791 0 0 1 17.859375,296.73539 17.594791,17.594791 0 0 1 0.26458359,279.14059 17.594791,17.594791 0 0 1 17.859375,261.5458 17.594791,17.594791 0 0 1 35.454166,279.14059 Z"
       id="path4518" />
  </g>
  <g
     inkscape:groupmode="layer"
     id="layer2"
     inkscape:label="Gradient"
     style="display:inline">
    <path
       inkscape:connector-curvature="0"
       style="fill:#ffffff;fill-opacity:1;stroke:#000000;stroke-width:0.26458332;stroke-linecap:round;stroke-linejoin:round;stroke-miterlimit:4;stroke-dasharray:none;stroke-opacity:1"
       d="M 12.532568,1.1110334 A 17.594791,17.594791 0 0 0 6.2388949,4.6777407 L 17.859374,17.859365 Z"
       id="rect4611" />
    <path
       inkscape:connector-curvature="0"
       style="fill:#aa9100;fill-opacity:1;stroke:#000000;stroke-width:0.26458332;stroke-linecap:round;stroke-linejoin:round;stroke-miterlimit:4;stroke-dasharray:none;stroke-opacity:1"
       d="m 23.186181,34.607697 a 17.594791,17.594791 0 0 0 6.293673,-3.566708 L 17.859375,17.859365 Z"
       id="rect4611-9" />
    <path
       style="fill:#ffffff;fill-opacity:1;stroke:#000000;stroke-width:0.99999994;stroke-linecap:round;stroke-linejoin:round;stroke-miterlimit:4;stroke-dasharray:none;stroke-opacity:1"
       d="M 57.681641,1.2265625 A 66.499997,66.499997 0 0 0 50.171875,2.7089844 L 67.488281,67.488281 Z"
       transform="scale(0.26458333)"
       id="rect4702"
       inkscape:connector-curvature="0" />
    <path
       inkscape:connector-curvature="0"
       style="display:inline;fill:#aa9100;fill-opacity:1;stroke:#000000;stroke-width:0.26458332;stroke-linecap:round;stroke-linejoin:round;stroke-miterlimit:4;stroke-dasharray:none;stroke-opacity:1"
       d="m 20.450947,35.38802 a 17.594791,17.594791 0 0 0 1.986959,-0.392224 L 17.856274,17.856274 Z"
       id="rect4702-4" />
  </g>
  <g
     inkscape:groupmode="layer"
     id="layer4"
     inkscape:label="Layer 2"
     style="display:inline">
    <ellipse
       style="fill:#f6dc00;fill-opacity:1;stroke:#000000;stroke-width:0.52916658;stroke-linecap:round;stroke-linejoin:round;stroke-miterlimit:4;stroke-dasharray:none;stroke-opacity:1"
       id="path4520"
       cx="17.859375"
       cy="17.859364"
       rx="15.478125"
       ry="15.478126" />
    <circle
       style="fill:none;fill-opacity:1;stroke:#000000;stroke-width:0.5291667;stroke-linecap:round;stroke-linejoin:round;stroke-miterlimit:4;stroke-dasharray:none;stroke-opacity:1"
       id="path4737"
       cx="17.859375"
       cy="17.859375"
       r="17.594791" />
  </g>
  <g
     inkscape:groupmode="layer"
     id="layer7"
     inkscape:label="SKKU">
    <g
       style="display:inline"
       transform="matrix(0.26458333,0,0,0.26458333,-13.785794,-141.25106)"
       id="layer1-3"
       inkscape:label="Calque 1">
      <g
         transform="matrix(3.0038812,0,0,3.0038812,-552.1375,-1250.1166)"
         id="g13755">
        <g
           id="g5877"
           transform="matrix(2.8395743,0,0,-2.8395743,167.79412,721.62433)" />
        <g
           id="g5945"
           transform="matrix(1.191391,0,0,-1.191391,179.25786,660.5267)"
           style="fill:#050606;fill-opacity:1;stroke-width:2.38341093">
          <g
             id="g5947"
             clip-path="url(#clipPath5949-6)"
             style="fill:#050606;fill-opacity:1;stroke-width:2.38341093">
            <g
               id="g5957"
               transform="translate(31.3075,28.9209)"
               style="fill:#050606;fill-opacity:1;stroke-width:2.38341093">
              <path
                 inkscape:connector-curvature="0"
                 d="m 0,0 c -0.284,0.25 -0.772,0.71 -1.209,1.275 -2.005,2.249 -4.293,8.145 -0.484,13.494 1.57,2.205 3.827,3.69 6.067,4.291 5.225,1.404 9.239,-1.066 11.077,-3.054 0.204,-0.222 0.176,-0.505 0.021,-0.635 -0.228,-0.192 -0.434,-0.092 -0.893,0.042 -0.717,0.207 -1.332,0.256 -1.995,0.171 -1.535,-0.195 -2.866,-1.618 -2.681,-3.607 0.169,-1.815 1.568,-3.126 2.551,-3.992 3.452,-3.041 2.297,-6.3 2.017,-7.015 -0.956,-2.431 -3.402,-4.145 -6.573,-4.145 -1.318,0 -3.22,0.341 -5.134,1.555 -0.074,0.032 -0.145,0.131 -0.056,0.295 0.146,0.369 0.757,1.446 1.02,1.759 0.951,-1.099 2.556,-2.134 4.338,-2.2 2.437,-0.088 4.006,1.23 4.583,2.904 0.646,1.881 -0.042,3.796 -1.862,5.525 -1.57,1.49 -2.971,2.871 -3.052,5.235 -0.105,3.028 2.532,4.826 4.983,4.706 C 12.792,16.6 9.33,19.098 4.889,17.61 2.714,16.882 1.412,15.598 0.788,14.869 0.694,14.755 0.752,14.669 0.786,14.624 0.854,14.525 2.364,12.418 2.364,12.418 l -2.724,0.626 c 0,0 -0.113,0.028 -0.169,-0.066 -0.866,-1.492 -2.142,-5.809 0.708,-9.74 0,0 2.426,3.844 7.244,4.171 C 7.744,7.43 7.703,7.316 7.493,7.24 3.188,5.658 1.49,2.501 0.393,0.066 0.326,-0.084 0.147,-0.128 0,0"
                 style="fill:#050606;fill-opacity:1;fill-rule:nonzero;stroke:none;stroke-width:2.38341093"
                 id="path5959" />
            </g>
          </g>
        </g>
      </g>
    </g>
  </g>
</svg>
